<svg xmlns="http://www.w3.org/2000/svg" fill="#ffffff" viewBox="0 0 128 160" x="0px" y="0px">
  <path d="M50.58044,90H47.41956A5.22226,5.22226,0,0,0,42,95.00073v1.16016A14.03919,14.03919,0,0,0,30,110v3.99963a14.04152,14.04152,0,0,0,14,14.00031S46.78284,128,49.76459,128c3.44037,0,7.14557-.00006,7.14581-.00037.28979-.336,5.10614-6.22278,5.56335-6.64948a1.957,1.957,0,0,1,1.35107-.58289,1.75394,1.75394,0,0,1,.84137.21606c.71552.397,5.15076,5.72125,6.165,7.01526L84,127.99963a14.04114,14.04114,0,0,0,14-14V110A14.03919,14.03919,0,0,0,86,96.16089V95.00073A5.22222,5.22222,0,0,0,80.58044,90H77.41956A5.22226,5.22226,0,0,0,72,95.00073V96H56v-.99927A5.22222,5.22222,0,0,0,50.58044,90ZM46,95.00073C46,94.5274,46.583,94,47.41956,94h3.16089C51.41705,94,52,94.5274,52,95.00073V96H46Zm30,0C76,94.5274,76.583,94,77.41956,94h3.16089C81.41705,94,82,94.5274,82,95.00073V96H76ZM72,100H84a10.0113,10.0113,0,0,1,10,10v3.99963a10.0113,10.0113,0,0,1-10,10h-.04626c-.63873,0-7.725,0-11.20477-.00043-1.73322-2.1239-4.82806-5.78436-6.14246-6.51373a5.74784,5.74784,0,0,0-2.78168-.7182,5.98871,5.98871,0,0,0-4.08014,1.65851c-.36157.3374-.9256.9762-4.71759,5.57416C53.63611,124,51.6601,124,49.76459,124l-5.76447-.00006A10.01171,10.01171,0,0,1,34,113.99963V110a10.01134,10.01134,0,0,1,10-10H72Z"/><path d="M50.49225,107.50891A4.70814,4.70814,0,0,0,46.364,105h-.72687a4.70743,4.70743,0,0,0-4.10992,2.47351A4.72208,4.72208,0,0,0,39,111.63611v.72778a4.72019,4.72019,0,0,0,2.49182,4.14355A4.72122,4.72122,0,0,0,45.63617,119h.72766a4.72225,4.72225,0,0,0,4.16333-2.52789A4.70564,4.70564,0,0,0,53,112.36389V111.637A4.70862,4.70862,0,0,0,50.49225,107.50891ZM49,112.36389a.82054.82054,0,0,1-.88892.72681h-1.02V114.2a.76639.76639,0,0,1-.72729.8h-.72766a.76643.76643,0,0,1-.72723-.8V113.0907h-1.109A.76639.76639,0,0,1,43,112.36389v-.72778a.76639.76639,0,0,1,.79993-.72681h1.109v-1.02057A.82064.82064,0,0,1,45.63715,109H46.364a.82057.82057,0,0,1,.72711.88873v1.02057h1.02A.82057.82057,0,0,1,49,111.637Z"/><path d="M77,111h1a2,2,0,0,0,0-4H77a2,2,0,0,0,0,4Z"/><path d="M86,111h1a2,2,0,0,0,0-4H86a2,2,0,0,0,0,4Z"/><path d="M77,117h1a2,2,0,0,0,0-4H77a2,2,0,0,0,0,4Z"/><path d="M86,117h1a2,2,0,0,0,0-4H86a2,2,0,0,0,0,4Z"/><path d="M61,112h6a2,2,0,0,0,0-4H61a2,2,0,0,0,0,4Z"/><path d="M89.5,55.5h-4v-4h-4v-20h-4v10h-4V45h-4V28A5.505,5.505,0,0,0,66,22.88208V19.5a2,2,0,0,0-4,0v3.38208A5.505,5.505,0,0,0,58.5,28V45h-4V41.5h-4v-10h-4v20h-4v4h-4v-14h-4v27h4v-3h4v-4h8v5H48v4h4.5a2.0001,2.0001,0,0,0,2-2V65h4v1a5.50455,5.50455,0,0,0,3.53717,5.13153A2.00213,2.00213,0,0,0,62,71.5V74H58a2,2,0,0,0,0,4H70a2,2,0,0,0,0-4H66V71.5a2.00213,2.00213,0,0,0-.03717-.36847A5.50455,5.50455,0,0,0,69.5,66V65h4v3.5a2.0001,2.0001,0,0,0,2,2H80v-4H77.5v-5h8v4h4v3h4v-27h-4ZM65.5,66a1.5,1.5,0,0,1-3,0V28a1.5,1.5,0,0,1,3,0Z"/><path d="M26,51a9,9,0,1,0-9,9A9.01015,9.01015,0,0,0,26,51Zm-9,5a5,5,0,1,1,5-5A5,5,0,0,1,17,56Z"/><path d="M111,60a9,9,0,1,0,9,9A9.01019,9.01019,0,0,0,111,60Zm0,14a5,5,0,1,1,5-5A5,5,0,0,1,111,74Z"/><path d="M111,42a6,6,0,1,0-6,6A6.0068,6.0068,0,0,0,111,42Zm-8,0a2,2,0,1,1,2,2A2,2,0,0,1,103,42Z"/><path d="M24,65a6,6,0,1,0,6,6A6.0068,6.0068,0,0,0,24,65Zm0,8a2,2,0,1,1,2-2A2,2,0,0,1,24,73Z"/><path d="M31.66046,22.77692l2.35419-2.8374a3.99932,3.99932,0,0,0-2.84229-6.62384c-.05817-.00256-.11664-.00385-.175-.00385q-.1669,0-.33472.0141a3.98329,3.98329,0,0,0-.74219.13275l-3.57733.91309-2.022-3.19629A4,4,0,0,0,16.949,13.05719l-.24286,3.77429-3.66461.93542a4,4,0,0,0-.48853,7.59271L16.06757,26.757l-.24286,3.77429a3.99989,3.99989,0,0,0,7.07019,2.81091l2.41492-2.91077,3.51459,1.39728a3.99994,3.99994,0,0,0,4.85809-5.85547Zm-1.35828,5.33478L24.087,25.64075l-4.27057,5.14734.42944-6.6745-6.21515-2.47095,6.48053-1.65411.42944-6.6745,3.57574,5.65222L30.997,17.31213l-4.27057,5.14734Z"/><path d="M101.20337,29.82867l3.51453-1.39728,2.415,2.91077a4,4,0,0,0,7.07019-2.81091l-.24286-3.77429,3.51459-1.39734a4,4,0,0,0-.48853-7.59271l-3.66467-.93542-.2428-3.77429a3.9999,3.9999,0,0,0-7.37213-1.88171l-2.022,3.19629L100.02,11.4364a4,4,0,0,0-4.06769,6.42981l2.41492,2.91071-2.022,3.19629a3.99976,3.99976,0,0,0,4.85809,5.85547ZM99.03076,15.31213l6.48053,1.65411L109.087,11.314l.42944,6.6745,6.48053,1.65411-6.21515,2.47095.42944,6.6745-4.27057-5.14734-6.21515,2.47095,3.57574-5.65222Z"/><path d="M79,15a2.0001,2.0001,0,0,0,2-2V9a2,2,0,0,0-4,0v4A2.0001,2.0001,0,0,0,79,15Z"/><path d="M79,27a2.0001,2.0001,0,0,0,2-2V21a2,2,0,0,0-4,0v4A2.0001,2.0001,0,0,0,79,27Z"/><path d="M49,15a2.0001,2.0001,0,0,0,2-2V9a2,2,0,0,0-4,0v4A2.0001,2.0001,0,0,0,49,15Z"/><path d="M49,27a2.0001,2.0001,0,0,0,2-2V21a2,2,0,0,0-4,0v4A2.0001,2.0001,0,0,0,49,27Z"/><path d="M122,0H6A6.00656,6.00656,0,0,0,0,6V80a6.00656,6.00656,0,0,0,6,6h5v5a3.00328,3.00328,0,0,1-3,3H2a2,2,0,0,0,0,4H8a7.00246,7.00246,0,0,0,6.31488-4H38.06177a8.69877,8.69877,0,0,1,1.53113-4H15V86h98v4H88.4071a8.69877,8.69877,0,0,1,1.53113,4h23.74689A7.00246,7.00246,0,0,0,120,98h6a2,2,0,0,0,0-4h-6a3.00328,3.00328,0,0,1-3-3V86h5a6.00656,6.00656,0,0,0,6-6V6A6.00656,6.00656,0,0,0,122,0Zm2,80a2.00229,2.00229,0,0,1-2,2H6a2.00229,2.00229,0,0,1-2-2V6A2.00229,2.00229,0,0,1,6,4H122a2.00229,2.00229,0,0,1,2,2Z"/><path d="M69.5929,90H58.4071a8.69877,8.69877,0,0,1,1.53113,4h8.12354A8.69877,8.69877,0,0,1,69.5929,90Z"/>
</svg>